<?xml version="1.0" encoding="UTF-8" standalone="no"?>
<svg
   version="1.0"
   width="24pt"
   height="24pt"
   viewBox="0 0 24 24"
   preserveAspectRatio="xMidYMid meet"
   id="svg30"
   sodipodi:docname="E_favicon.svg"
   inkscape:version="1.1.2 (0a00cf5339, 2022-02-04)"
   xmlns:inkscape="http://www.inkscape.org/namespaces/inkscape"
   xmlns:sodipodi="http://sodipodi.sourceforge.net/DTD/sodipodi-0.dtd"
   xmlns="http://www.w3.org/2000/svg"
   xmlns:svg="http://www.w3.org/2000/svg">
  <defs
     id="defs34" />
  <sodipodi:namedview
     id="namedview32"
     pagecolor="#ffffff"
     bordercolor="#666666"
     borderopacity="1.0"
     inkscape:pageshadow="2"
     inkscape:pageopacity="0.0"
     inkscape:pagecheckerboard="0"
     inkscape:document-units="pt"
     showgrid="false"
     inkscape:zoom="11.604808"
     inkscape:cx="14.433673"
     inkscape:cy="20.551826"
     inkscape:window-width="1920"
     inkscape:window-height="1136"
     inkscape:window-x="0"
     inkscape:window-y="27"
     inkscape:window-maximized="1"
     inkscape:current-layer="svg30" />
  <g
     transform="matrix(0.1,0,0,-0.1,-20.483983,286.83798)"
     fill="#000000"
     stroke="none"
     id="g28"
     style="fill:#000000">
    <path
       d="m 259.12786,2856.891 c -2.77478,-12.0349 -43.70287,-218.3951 -43.40557,-218.9139 0.1982,-0.5188 40.03619,-0.83 88.49585,-0.83 48.45964,0 88.29764,0.3112 88.49583,0.83 0.6937,1.1413 15.55862,74.8042 15.55862,77.0868 0,1.8675 -1.3874,1.9713 -39.83799,2.1788 -39.5407,0.3112 -39.63979,0.3112 -9.01806,0.5187 28.34245,0.3112 30.91904,0.5187 31.41454,2.1787 0.5946,1.9713 11.49554,54.7804 11.79284,57.2705 0.1982,1.3487 -3.96398,1.6599 -30.52264,2.075 l -30.72084,0.5186 38.7479,0.3113 38.64879,0.2076 7.63067,38.1802 c 4.26127,20.9576 7.63065,38.6991 7.63065,39.4253 0,0.9338 -18.1352,1.2451 -87.20754,1.2451 h -87.20754 z m 165.00064,-7.055 c 0,-0.6224 -2.67567,-14.3175 -5.94596,-30.399 -3.27029,-16.185 -5.94597,-29.6726 -5.94597,-30.0876 0,-0.415 -17.5406,-0.7262 -39.0452,-0.7262 h -38.9461 l -1.58559,-8.4039 c -0.8919,-4.6688 -1.38738,-8.8188 -1.09009,-9.3375 0.2973,-0.5188 14.17122,-0.9338 30.72084,-0.9338 h 30.32444 l -0.6937,-3.8388 c -0.2973,-2.1787 -2.27929,-11.8275 -4.26128,-21.5802 l -3.76577,-17.6376 -31.21634,-0.3112 -31.21635,-0.2075 -1.58558,-8.6113 c -0.8919,-4.6688 -1.38739,-8.8188 -1.09009,-9.2339 0.19819,-0.5186 18.2343,-0.8299 40.03618,-0.8299 25.27038,0 39.5407,-0.4151 39.5407,-1.0375 0,-0.5188 -2.67568,-14.2139 -5.94596,-30.2953 -3.27029,-16.0813 -5.94598,-29.3614 -5.94598,-29.5689 0,-0.2075 -36.07221,-0.3113 -80.27058,-0.3113 -67.98225,0 -80.27059,0.2075 -80.27059,1.4525 0,1.4526 39.3425,199.2014 40.1353,201.6915 0.59459,1.66 158.06367,1.8675 158.06367,0.2074 z"
       id="path8"
       style="fill:#000000;stroke-width:0.101399" />
  </g>
  <style
     id="style6">@media (prefers-color-scheme: light) { :root { filter: none; } }
   @media (prefers-color-scheme: dark) { :root { filter: invert(100%); } }
   </style>
</svg>
