<?xml version="1.0" encoding="UTF-8" standalone="no"?>
<svg
   version="1.0"
   width="24pt"
   height="24pt"
   viewBox="0 0 31.2 24"
   preserveAspectRatio="xMidYMid meet"
   id="svg30"
   sodipodi:docname="Erpelistics_favicon.svg"
   inkscape:version="1.1.2 (0a00cf5339, 2022-02-04)"
   xmlns:inkscape="http://www.inkscape.org/namespaces/inkscape"
   xmlns:sodipodi="http://sodipodi.sourceforge.net/DTD/sodipodi-0.dtd"
   xmlns="http://www.w3.org/2000/svg"
   xmlns:svg="http://www.w3.org/2000/svg">
  <defs
     id="defs34" />
  <sodipodi:namedview
     id="namedview32"
     pagecolor="#ffffff"
     bordercolor="#666666"
     borderopacity="1.0"
     inkscape:pageshadow="2"
     inkscape:pageopacity="0.0"
     inkscape:pagecheckerboard="0"
     inkscape:document-units="pt"
     showgrid="false"
     inkscape:zoom="11.604808"
     inkscape:cx="14.433672"
     inkscape:cy="20.594912"
     inkscape:window-width="1920"
     inkscape:window-height="1043"
     inkscape:window-x="1920"
     inkscape:window-y="0"
     inkscape:window-maximized="1"
     inkscape:current-layer="g28" />
  <g
     transform="matrix(0.1,0,0,-0.1,-19.505149,289.89809)"
     fill="#000000"
     stroke="none"
     id="g28"
     style="fill:#000000">
    <path
       d="m 270.19695,2917.7973 c -3.48237,-15.3707 -54.84736,-278.9276 -54.47425,-279.5901 0.24874,-0.6626 50.24566,-1.0601 111.06281,-1.0601 60.81714,0 110.81406,0.3975 111.0628,1.0601 0.87059,1.4576 19.52615,95.5376 19.52615,98.4528 0,2.3851 -1.74119,2.5177 -49.99691,2.7827 -49.62381,0.3975 -49.74817,0.3975 -11.31772,0.6625 35.56995,0.3975 38.80358,0.6625 39.42544,2.7826 0.74622,2.5177 14.42697,69.9638 14.80008,73.1441 0.24874,1.7225 -4.97482,2.12 -38.30609,2.6501 l -38.55484,0.6624 48.62884,0.3976 48.50447,0.2651 9.57653,48.7626 c 5.34792,26.7664 9.57651,49.4252 9.57651,50.3527 0,1.1927 -22.75978,1.5902 -109.44598,1.5902 H 270.81881 Z m 207.07678,-9.0105 c 0,-0.7949 -3.35799,-18.2858 -7.46222,-38.8246 -4.10423,-20.671 -7.46223,-37.897 -7.46223,-38.427 0,-0.53 -22.01356,-0.9275 -49.00195,-0.9275 h -48.87759 l -1.98992,-10.7332 c -1.11934,-5.9628 -1.74118,-11.2631 -1.36807,-11.9256 0.37311,-0.6625 17.78496,-1.1926 38.55483,-1.1926 h 38.05735 l -0.87059,-4.9028 c -0.37312,-2.7825 -2.86053,-15.1057 -5.34793,-27.5615 l -4.72607,-22.5262 -39.17669,-0.3975 -39.1767,-0.265 -1.98991,-10.9981 c -1.11934,-5.9628 -1.74119,-11.2631 -1.36808,-11.7932 0.24874,-0.6624 22.88416,-1.06 50.24565,-1.06 31.71447,0 49.62381,-0.5301 49.62381,-1.325 0,-0.6626 -3.358,-18.1536 -7.46222,-38.6922 -4.10423,-20.5386 -7.46224,-37.4995 -7.46224,-37.7645 0,-0.265 -45.27083,-0.3976 -100.74005,-0.3976 -85.31812,0 -100.74006,0.265 -100.74006,1.8551 0,1.8552 49.37507,254.4139 50.37003,257.5941 0.74622,2.1201 198.37085,2.3851 198.37085,0.2649 z"
       id="path8"
       style="fill:#000000;stroke-width:0.128375" />
  </g>
  <style>@media (prefers-color-scheme: light) { :root { filter: none; } }
   @media (prefers-color-scheme: dark) { :root { filter: invert(100%); } }
   </style>
</svg>
