<?xml version="1.0" encoding="UTF-8" standalone="no"?>
<svg
   version="1.0"
   width="2021.000000pt"
   height="407.000000pt"
   viewBox="0 0 2021.000000 407.000000"
   preserveAspectRatio="xMidYMid meet"
   id="svg30"
   sodipodi:docname="Logo.svg"
   inkscape:version="1.1.2 (0a00cf5339, 2022-02-04)"
   xmlns:inkscape="http://www.inkscape.org/namespaces/inkscape"
   xmlns:sodipodi="http://sodipodi.sourceforge.net/DTD/sodipodi-0.dtd"
   xmlns="http://www.w3.org/2000/svg"
   xmlns:svg="http://www.w3.org/2000/svg">
  <defs
     id="defs34" />
  <sodipodi:namedview
     id="namedview32"
     pagecolor="#ffffff"
     bordercolor="#666666"
     borderopacity="1.0"
     inkscape:pageshadow="2"
     inkscape:pageopacity="0.0"
     inkscape:pagecheckerboard="0"
     inkscape:document-units="pt"
     showgrid="false"
     inkscape:zoom="0.36265026"
     inkscape:cx="1305.6657"
     inkscape:cy="363.98705"
     inkscape:window-width="1920"
     inkscape:window-height="1043"
     inkscape:window-x="1920"
     inkscape:window-y="0"
     inkscape:window-maximized="1"
     inkscape:current-layer="svg30" />
  <g
     transform="translate(0.000000,407.000000) scale(0.100000,-0.100000)"
     fill="#000000"
     stroke="none"
     id="g28"
     style="fill:#ffffff">
    <path
       d="M12180 2859 c-121 -13 -273 -52 -377 -97 -242 -104 -410 -284 -483 -517 -27 -86 -38 -256 -21 -336 15 -72 63 -172 108 -228 47 -56 163 -132 262 -170 73 -28 296 -80 352 -82 13 0 18 -3 11 -6 -20 -8 -177 16 -285 42 -123 31 -236 75 -312 120 -32 20 -60 34 -62 32 -5 -5 -263 -730 -263 -739 0 -13 162 -85 262 -117 360 -114 823 -134 1128 -50 387 108 618 399 620 784 1 335 -213 514 -705 589 l-90 14 67 1 c131 2 372 -59 509 -129 34 -17 63 -30 64 -28 7 7 265 703 265 714 0 35 -248 128 -450 168 -215 43 -411 54 -600 35z m458 -94 c57 -8 144 -24 195 -36 107 -25 288 -89 294 -104 2 -6 -43 -134 -100 -285 -73 -195 -107 -274 -118 -273 -8 1 -60 18 -115 37 -151 52 -290 78 -424 80 -133 1 -170 -12 -189 -65 -9 -26 -8 -37 4 -56 22 -33 42 -39 184 -58 350 -47 543 -140 621 -298 39 -80 54 -163 46 -258 -30 -366 -255 -598 -660 -682 -138 -28 -476 -30 -646 -3 -188 29 -441 102 -508 144 -10 7 11 75 89 293 56 156 103 286 105 288 1 2 36 -10 76 -27 116 -48 233 -82 356 -103 135 -23 288 -25 336 -5 53 22 66 89 24 124 -8 6 -66 19 -129 28 -237 33 -347 62 -464 122 -172 89 -257 245 -241 442 28 362 301 622 730 694 111 19 406 19 534 1z"
       id="path2"
       style="fill:#ffffff" />
    <path
       d="M17280 2859 c-586 -56 -1032 -414 -1161 -931 -26 -108 -36 -324 -19 -439 64 -443 376 -744 845 -816 140 -21 431 -13 570 17 133 28 297 83 370 124 60 33 60 34 58 77 -4 83 -55 754 -57 756 -1 2 -31 -13 -67 -32 -134 -71 -341 -114 -461 -95 -146 22 -212 86 -211 205 2 251 327 364 631 220 40 -19 87 -44 104 -56 17 -12 33 -18 38 -13 5 5 88 173 185 374 l176 365 -27 20 c-232 176 -599 260 -974 224z m425 -94 c50 -8 124 -24 165 -35 89 -25 300 -125 300 -143 0 -10 -274 -585 -284 -594 -2 -2 -32 10 -67 27 -135 63 -324 88 -448 59 -218 -50 -352 -252 -296 -445 58 -198 333 -259 656 -145 54 19 82 25 84 17 2 -6 11 -119 20 -251 9 -132 19 -267 22 -301 l5 -60 -71 -32 c-88 -40 -211 -76 -334 -99 -140 -26 -441 -24 -567 4 -374 82 -619 316 -698 667 -20 91 -22 325 -3 421 96 482 478 827 1007 909 122 19 396 20 509 1z"
       id="path4"
       style="fill:#ffffff" />
    <path
       d="M19115 2864 c-251 -26 -447 -90 -603 -196 -74 -50 -185 -168 -230 -244 -89 -151 -129 -353 -99 -504 51 -260 237 -402 622 -474 146 -27 133 -34 -20 -11 -184 28 -374 90 -477 157 -27 17 -50 29 -52 27 -4 -6 -254 -711 -258 -729 -7 -35 243 -136 447 -180 231 -50 561 -65 760 -35 255 39 423 113 568 254 130 125 208 293 225 486 14 146 0 230 -56 338 -85 165 -270 266 -590 322 -122 21 -130 24 -77 24 127 2 360 -55 491 -119 44 -21 82 -36 85 -32 5 6 269 708 269 716 0 2 -33 19 -72 39 -135 65 -312 115 -503 142 -103 15 -359 26 -430 19z m406 -100 c137 -19 307 -61 416 -103 l82 -32 -28 -77 c-91 -245 -183 -487 -186 -490 -2 -2 -34 8 -72 23 -100 40 -277 83 -402 96 -177 19 -271 -11 -271 -86 0 -54 23 -64 197 -90 209 -32 299 -56 409 -110 111 -54 189 -132 226 -222 20 -50 23 -75 23 -183 -1 -87 -6 -145 -18 -190 -103 -383 -464 -578 -1027 -557 -175 7 -316 26 -470 64 -124 30 -290 91 -297 109 -5 13 182 552 197 568 5 5 45 -7 92 -27 167 -71 323 -106 508 -114 150 -6 190 4 212 52 14 30 3 71 -22 85 -10 5 -83 19 -162 31 -337 49 -505 123 -597 261 -55 81 -72 143 -72 258 1 385 295 672 756 739 102 15 385 12 506 -5z"
       id="path6"
       style="fill:#ffffff" />
    <path
       d="M685 2808 c-28 -116 -441 -2105 -438 -2110 2 -5 404 -8 893 -8 489 0 891 3 893 8 7 11 157 721 157 743 0 18 -14 19 -402 21 -399 3 -400 3 -91 5 286 3 312 5 317 21 6 19 116 528 119 552 2 13 -40 16 -308 20 l-310 5 391 3 390 2 77 368 c43 202 77 373 77 380 0 9 -183 12 -880 12 l-880 0 -5 -22z m1665 -68 c0 -6 -27 -138 -60 -293 -33 -156 -60 -286 -60 -290 0 -4 -177 -7 -394 -7 l-393 0 -16 -81 c-9 -45 -14 -85 -11 -90 3 -5 143 -9 310 -9 l306 0 -7 -37 c-3 -21 -23 -114 -43 -208 l-38 -170 -315 -3 -315 -2 -16 -83 c-9 -45 -14 -85 -11 -89 2 -5 184 -8 404 -8 255 0 399 -4 399 -10 0 -5 -27 -137 -60 -292 -33 -155 -60 -283 -60 -285 0 -2 -364 -3 -810 -3 -686 0 -810 2 -810 14 0 14 397 1920 405 1944 6 16 1595 18 1595 2z"
       id="path8"
       style="fill:#ffffff" />
    <path
       d="M2550 2825 c0 -2 -99 -476 -220 -1053 -121 -577 -220 -1056 -220 -1065 0 -16 41 -17 485 -17 l485 0 9 23 c4 12 25 106 47 210 21 103 41 187 44 187 3 0 21 -87 40 -192 18 -106 37 -201 42 -210 8 -17 42 -18 493 -18 266 0 486 3 488 8 3 4 -23 157 -56 340 l-60 333 77 70 c124 115 193 225 243 386 25 81 27 101 27 263 0 163 -2 180 -26 247 -98 273 -333 439 -683 482 -87 11 -1215 17 -1215 6z m1169 -85 c370 -38 607 -214 666 -495 39 -188 -2 -425 -102 -585 -41 -64 -128 -156 -195 -207 -30 -21 -48 -42 -48 -55 0 -17 91 -534 105 -595 l5 -23 -410 0 -410 0 -5 23 c-3 12 -21 114 -41 227 -19 113 -37 213 -40 223 -4 14 -17 17 -65 17 -32 0 -59 -4 -59 -8 0 -8 -83 -407 -95 -460 l-5 -22 -406 0 -406 0 5 28 c16 80 398 1899 403 1919 l6 23 498 0 c274 0 543 -5 599 -10z"
       id="path10"
       style="fill:#ffffff" />
    <path
       d="M3305 2119 c-12 -33 -72 -335 -68 -341 7 -12 155 -9 214 3 62 13 122 64 140 116 6 19 9 61 7 94 -7 96 -49 125 -198 136 -72 5 -91 3 -95 -8z m193 -95 c15 -10 22 -25 22 -49 0 -78 -43 -115 -131 -115 l-52 0 7 40 c3 22 11 63 17 90 l11 50 52 0 c30 0 61 -6 74 -16z"
       id="path12"
       style="fill:#ffffff" />
    <path
       d="M4720 2822 c0 -6 -99 -482 -220 -1059 -121 -576 -220 -1054 -220 -1060 0 -10 103 -13 480 -13 l480 0 9 23 c4 12 23 95 42 185 l33 162 128 0 c399 0 675 94 878 299 165 167 261 392 276 650 16 254 -55 454 -210 598 -80 74 -154 118 -261 155 -177 61 -177 61 -822 65 -377 3 -593 1 -593 -5z m1253 -101 c294 -65 465 -209 528 -447 27 -102 29 -292 4 -409 -70 -333 -281 -563 -610 -668 -104 -34 -224 -47 -425 -47 -146 0 -200 -3 -208 -12 -5 -7 -24 -83 -41 -168 -18 -85 -35 -163 -37 -173 -5 -16 -33 -17 -406 -17 l-400 0 5 22 c3 13 94 446 202 963 108 517 200 951 206 963 l9 24 538 -5 c506 -4 543 -5 635 -26z"
       id="path14"
       style="fill:#ffffff" />
    <path
       d="M5455 2078 c-6 -21 -75 -349 -75 -360 0 -6 36 -9 98 -6 116 4 162 23 207 87 28 39 30 50 30 126 0 79 -2 85 -29 114 -17 17 -46 36 -65 41 -52 14 -161 13 -166 -2z m169 -94 c33 -32 10 -138 -36 -167 -28 -19 -94 -32 -101 -20 -2 4 5 52 16 106 l20 97 43 0 c25 0 49 -6 58 -16z"
       id="path16"
       style="fill:#ffffff" />
    <path
       d="M6602 1772 c-122 -582 -222 -1063 -222 -1070 0 -9 196 -12 895 -12 l895 0 5 23 c13 58 155 734 155 740 0 4 -183 8 -407 9 -404 3 -405 3 -92 5 l315 3 62 288 c34 158 62 290 62 294 0 4 -141 9 -312 11 l-313 2 392 3 393 2 5 23 c8 34 155 729 155 733 0 2 -397 4 -883 4 l-883 0 -222 -1058z m1881 971 c2 -5 -24 -138 -58 -298 l-61 -290 -392 -3 -392 -2 -5 -23 c-19 -82 -25 -115 -25 -134 l0 -23 311 0 c291 0 310 -1 305 -17 -6 -21 -86 -391 -86 -398 0 -3 -141 -5 -314 -5 l-315 0 -12 -57 c-6 -32 -12 -71 -13 -88 l-1 -30 403 -3 402 -2 -6 -25 c-3 -13 -31 -145 -62 -292 l-57 -268 -814 -3 -813 -2 5 22 c3 13 94 446 202 963 108 517 200 950 205 963 l10 22 789 0 c434 0 792 -3 794 -7z"
       id="path18"
       style="fill:#ffffff" />
    <path
       d="M8685 2818 c-17 -51 -442 -2115 -436 -2121 4 -4 387 -6 851 -5 l844 3 87 415 c48 228 88 421 88 428 1 9 -74 12 -344 12 l-345 0 5 23 c10 41 265 1247 265 1252 0 3 -227 5 -505 5 -396 0 -507 -3 -510 -12z m908 -75 c2 -5 -56 -289 -129 -633 -73 -344 -133 -628 -134 -632 0 -5 156 -8 346 -8 l346 0 -5 -22 c-3 -13 -36 -168 -73 -345 l-67 -323 -767 0 -767 0 18 87 c80 395 392 1870 396 1876 2 4 190 7 418 7 228 0 416 -3 418 -7z"
       id="path20"
       style="fill:#ffffff" />
    <path
       d="M10212 1769 c-122 -583 -220 -1064 -217 -1070 8 -12 962 -12 969 0 3 5 105 478 226 1052 121 574 222 1052 224 1062 4 16 -24 17 -488 17 l-492 0 -222 -1061z m1098 967 c0 -12 -382 -1837 -405 -1934 l-5 -22 -405 0 c-223 0 -405 1 -405 3 1 18 410 1949 415 1956 4 8 137 11 406 11 341 0 399 -2 399 -14z"
       id="path22"
       style="fill:#ffffff" />
    <path
       d="M13285 2818 c-6 -17 -175 -827 -175 -839 0 -5 101 -9 245 -9 l245 0 -5 -22 c-33 -135 -263 -1243 -259 -1250 3 -4 219 -8 480 -8 l474 0 10 23 c5 12 66 290 135 617 69 327 127 605 130 617 5 23 6 23 252 25 l247 3 88 415 c48 228 87 421 88 428 0 9 -202 12 -975 12 -771 0 -977 -3 -980 -12z m1855 -73 c0 -3 -31 -154 -70 -337 -38 -183 -70 -336 -70 -340 0 -4 -110 -8 -245 -8 -213 0 -246 -2 -252 -15 -3 -9 -65 -296 -137 -638 l-132 -622 -403 -3 c-380 -2 -402 -1 -397 15 7 24 266 1245 266 1255 0 4 -110 8 -245 8 l-245 0 5 23 c3 12 35 164 71 337 36 173 68 318 70 322 6 9 1784 11 1784 3z"
       id="path24"
       style="fill:#ffffff" />
    <path
       d="M15287 2803 c-3 -16 -103 -491 -221 -1056 -119 -566 -216 -1035 -216 -1043 0 -12 71 -14 485 -14 379 0 487 3 490 13 3 6 101 469 219 1027 118 558 219 1034 224 1058 l10 42 -493 0 -492 0 -6 -27z m883 -64 c0 -6 -92 -447 -205 -981 -113 -533 -205 -972 -205 -974 0 -2 -182 -4 -405 -4 -223 0 -405 2 -405 5 0 4 367 1758 400 1913 l12 52 404 0 c287 0 404 -3 404 -11z"
       id="path26"
       style="fill:#ffffff" />
  </g>
</svg>
